<?xml version="1.0" encoding="UTF-8" standalone="no"?>
<!DOCTYPE svg PUBLIC "-//W3C//DTD SVG 1.1//EN" "http://www.w3.org/Graphics/SVG/1.1/DTD/svg11.dtd">
<svg width="240.00" height="240.00" viewBox="0.00 0.00 2000.00 2000.00" xmlns="http://www.w3.org/2000/svg" xmlns:xlink="http://www.w3.org/1999/xlink">
<g stroke-linecap="round" id="Layer_2">
<path d="M980.47,628.85 C992.14,628.86 1027.98,631.61 1043.72,633.75 C1051.52,634.95 1063.76,637.08 1074.64,639.55 C1089.98,643.31 1120.55,652.72 1135.32,658.23 C1147.22,662.85 1178.40,678.02 1192.33,685.84 C1199.18,689.84 1215.38,699.88 1219.11,702.49 C1231.96,711.58 1256.91,731.54 1268.68,742.14 C1277.36,750.22 1282.83,755.70 1290.92,764.38 C1301.51,776.14 1321.48,801.10 1330.57,813.94 C1336.83,822.93 1355.04,854.66 1362.14,868.92 C1365.54,876.06 1371.98,890.42 1374.82,897.74 C1380.34,912.51 1389.75,943.07 1393.50,958.42 C1395.97,969.30 1398.10,981.53 1399.30,989.34 C1401.45,1005.07 1404.20,1040.92 1404.21,1052.59 C1404.20,1064.27 1401.45,1100.11 1399.30,1115.84 C1398.10,1123.65 1395.97,1135.89 1393.50,1146.77 C1389.75,1162.11 1380.34,1192.68 1374.82,1207.44 C1370.20,1219.35 1355.04,1250.52 1347.21,1264.46 C1343.22,1271.31 1333.17,1287.50 1330.57,1291.24 C1321.48,1304.08 1301.51,1329.04 1290.92,1340.80 C1282.83,1349.48 1277.36,1354.96 1268.68,1363.04 C1256.91,1373.64 1231.96,1393.61 1219.11,1402.70 C1210.12,1408.96 1178.40,1427.16 1164.14,1434.26 C1156.99,1437.67 1142.64,1444.11 1135.32,1446.95 C1120.55,1452.46 1089.98,1461.87 1074.64,1465.63 C1063.76,1468.10 1051.52,1470.23 1043.72,1471.43 C1027.98,1473.58 992.14,1476.33 980.47,1476.33 C968.79,1476.33 932.95,1473.58 917.21,1471.43 C909.41,1470.23 897.17,1468.10 886.29,1465.63 C870.95,1461.87 840.38,1452.46 825.61,1446.95 C813.71,1442.33 782.53,1427.16 768.60,1419.34 C761.75,1415.34 745.55,1405.30 741.82,1402.70 C728.97,1393.61 704.02,1373.64 692.25,1363.04 C683.57,1354.96 678.10,1349.48 670.01,1340.80 C659.42,1329.04 639.45,1304.08 630.36,1291.24 C624.10,1282.25 605.89,1250.52 598.79,1236.26 C595.39,1229.12 588.95,1214.76 586.11,1207.44 C580.59,1192.68 571.18,1162.11 567.43,1146.77 C564.96,1135.89 562.83,1123.65 561.63,1115.84 C559.48,1100.11 556.73,1064.27 556.72,1052.59 C556.73,1040.92 559.48,1005.07 561.63,989.34 C562.83,981.53 564.96,969.30 567.43,958.42 C571.18,943.07 580.59,912.51 586.11,897.74 C590.73,885.83 605.89,854.66 613.72,840.72 C617.71,833.87 627.76,817.68 630.36,813.94 C639.45,801.10 659.42,776.14 670.01,764.38 C678.10,755.70 683.57,750.22 692.25,742.14 C704.02,731.54 728.97,711.58 741.82,702.49 C750.81,696.23 782.53,678.02 796.79,670.92 C803.94,667.51 818.29,661.07 825.61,658.23 C840.38,652.72 870.95,643.31 886.29,639.55 C897.17,637.08 909.41,634.95 917.21,633.75 C932.95,631.61 968.79,628.86 980.47,628.85 Z" fill="none" stroke="rgb(0, 0, 0)" stroke-width="5.00" stroke-opacity="1.00" stroke-linejoin="round"/>
<path d="M979.53,628.85 C967.86,628.86 932.02,631.61 916.28,633.75 C908.48,634.95 896.24,637.08 885.36,639.55 C870.02,643.31 839.45,652.72 824.68,658.23 C812.78,662.85 781.60,678.02 767.67,685.84 C760.82,689.84 744.62,699.88 740.89,702.49 C728.04,711.58 703.09,731.54 691.32,742.14 C682.64,750.22 677.17,755.70 669.08,764.38 C658.49,776.14 638.52,801.10 629.43,813.94 C623.17,822.93 604.96,854.66 597.86,868.92 C594.46,876.06 588.02,890.42 585.18,897.74 C579.66,912.51 570.25,943.07 566.50,958.42 C564.03,969.30 561.90,981.53 560.70,989.34 C558.55,1005.07 555.80,1040.92 555.79,1052.59 C555.80,1064.27 558.55,1100.11 560.70,1115.84 C561.90,1123.65 564.03,1135.89 566.50,1146.77 C570.25,1162.11 579.66,1192.68 585.18,1207.44 C589.80,1219.35 604.96,1250.52 612.79,1264.46 C616.78,1271.31 626.83,1287.50 629.43,1291.24 C638.52,1304.08 658.49,1329.04 669.08,1340.80 C677.17,1349.48 682.64,1354.96 691.32,1363.04 C703.09,1373.64 728.04,1393.61 740.89,1402.70 C749.88,1408.96 781.60,1427.16 795.86,1434.26 C803.01,1437.67 817.36,1444.11 824.68,1446.95 C839.45,1452.46 870.02,1461.87 885.36,1465.63 C896.24,1468.10 908.48,1470.23 916.28,1471.43 C932.02,1473.58 967.86,1476.33 979.53,1476.33 C991.21,1476.33 1027.05,1473.58 1042.79,1471.43 C1050.59,1470.23 1062.83,1468.10 1073.71,1465.63 C1089.05,1461.87 1119.62,1452.46 1134.39,1446.95 C1146.29,1442.33 1177.47,1427.16 1191.40,1419.34 C1198.25,1415.34 1214.45,1405.30 1218.18,1402.70 C1231.03,1393.61 1255.98,1373.64 1267.75,1363.04 C1276.43,1354.96 1281.90,1349.48 1289.99,1340.80 C1300.58,1329.04 1320.55,1304.08 1329.64,1291.24 C1335.90,1282.25 1354.11,1250.52 1361.21,1236.26 C1364.61,1229.12 1371.05,1214.76 1373.89,1207.44 C1379.41,1192.68 1388.82,1162.11 1392.57,1146.77 C1395.04,1135.89 1397.17,1123.65 1398.37,1115.84 C1400.52,1100.11 1403.27,1064.27 1403.28,1052.59 C1403.27,1040.92 1400.52,1005.07 1398.37,989.34 C1397.17,981.53 1395.04,969.30 1392.57,958.42 C1388.82,943.07 1379.41,912.51 1373.89,897.74 C1369.27,885.83 1354.11,854.66 1346.28,840.72 C1342.29,833.87 1332.24,817.68 1329.64,813.94 C1320.55,801.10 1300.58,776.14 1289.99,764.38 C1281.90,755.70 1276.43,750.22 1267.75,742.14 C1255.98,731.54 1231.03,711.58 1218.18,702.49 C1209.19,696.23 1177.47,678.02 1163.21,670.92 C1156.06,667.51 1141.71,661.07 1134.39,658.23 C1119.62,652.72 1089.05,643.31 1073.71,639.55 C1062.83,637.08 1050.59,634.95 1042.79,633.75 C1027.05,631.61 991.21,628.86 979.53,628.85 Z" fill="none" stroke="rgb(0, 0, 0)" stroke-width="5.00" stroke-opacity="1.00" stroke-linejoin="round"/>
<path d="M953.00,918.00 C959.85,918.01 976.58,920.12 984.30,921.94 C992.93,923.99 1006.85,929.48 1013.79,933.08 C1020.96,936.83 1034.01,945.48 1039.74,950.46 C1045.27,955.29 1055.63,966.22 1060.22,972.05 C1064.78,977.88 1072.47,990.65 1075.80,997.53 C1079.12,1004.42 1084.40,1018.49 1086.20,1025.80 C1087.97,1033.14 1090.27,1048.40 1090.73,1055.96 C1091.16,1063.50 1090.27,1078.60 1089.13,1086.23 C1087.97,1093.86 1084.40,1108.52 1081.77,1115.55 C1079.12,1122.59 1072.47,1136.35 1068.63,1142.75 C1064.78,1149.12 1055.63,1160.78 1050.46,1166.25 C1045.27,1171.71 1034.01,1181.53 1027.62,1185.78 C1020.96,1190.17 1006.85,1197.52 999.32,1200.50 C992.93,1203.01 976.58,1206.88 968.65,1207.89 C959.85,1208.99 946.16,1208.99 937.35,1207.89 C929.43,1206.88 913.07,1203.01 906.68,1200.50 C899.15,1197.52 885.04,1190.17 878.39,1185.78 C872.00,1181.53 860.73,1171.71 855.55,1166.25 C850.37,1160.78 841.23,1149.12 837.38,1142.75 C833.53,1136.35 826.88,1122.59 824.23,1115.55 C821.60,1108.52 818.03,1093.86 816.88,1086.23 C815.74,1078.60 814.84,1063.50 815.28,1055.96 C815.74,1048.40 818.03,1033.14 819.81,1025.80 C821.60,1018.49 826.88,1004.42 830.20,997.53 C833.53,990.65 841.23,977.88 845.79,972.05 C850.37,966.22 860.73,955.29 866.26,950.46 C872.00,945.48 885.04,936.83 892.22,933.08 C899.15,929.48 913.07,923.99 921.70,921.94 C929.43,920.12 946.16,918.01 953.00,918.00 Z" fill="none" stroke="rgb(0, 0, 0)" stroke-width="5.00" stroke-opacity="1.00" stroke-linejoin="round"/>
<path d="M1011.00,918.00 C1004.15,918.01 987.42,920.12 979.70,921.94 C971.07,923.99 957.15,929.48 950.21,933.08 C943.04,936.83 929.99,945.48 924.26,950.46 C918.73,955.29 908.37,966.22 903.78,972.05 C899.22,977.88 891.53,990.65 888.20,997.53 C884.88,1004.42 879.60,1018.49 877.80,1025.80 C876.03,1033.14 873.73,1048.40 873.27,1055.96 C872.84,1063.50 873.73,1078.60 874.87,1086.23 C876.03,1093.86 879.60,1108.52 882.23,1115.55 C884.88,1122.59 891.53,1136.35 895.37,1142.75 C899.22,1149.12 908.37,1160.78 913.54,1166.25 C918.73,1171.71 929.99,1181.53 936.38,1185.78 C943.04,1190.17 957.15,1197.52 964.68,1200.50 C971.07,1203.01 987.42,1206.88 995.35,1207.89 C1004.15,1208.99 1017.84,1208.99 1026.65,1207.89 C1034.57,1206.88 1050.93,1203.01 1057.32,1200.50 C1064.85,1197.52 1078.96,1190.17 1085.61,1185.78 C1092.00,1181.53 1103.27,1171.71 1108.45,1166.25 C1113.63,1160.78 1122.77,1149.12 1126.62,1142.75 C1130.47,1136.35 1137.12,1122.59 1139.77,1115.55 C1142.40,1108.52 1145.97,1093.86 1147.12,1086.23 C1148.26,1078.60 1149.16,1063.50 1148.72,1055.96 C1148.26,1048.40 1145.97,1033.14 1144.19,1025.80 C1142.40,1018.49 1137.12,1004.42 1133.80,997.53 C1130.47,990.65 1122.77,977.88 1118.21,972.05 C1113.63,966.22 1103.27,955.29 1097.74,950.46 C1092.00,945.48 1078.96,936.83 1071.78,933.08 C1064.85,929.48 1050.93,923.99 1042.30,921.94 C1034.57,920.12 1017.84,918.01 1011.00,918.00 Z" fill="none" stroke="rgb(0, 0, 0)" stroke-width="5.00" stroke-opacity="1.00" stroke-linejoin="round"/>
<path d="M973.18,759.82 C977.28,759.82 996.82,760.93 1004.76,761.69 C1012.70,762.63 1028.38,765.05 1036.10,766.53 C1040.65,767.46 1058.94,772.51 1066.52,774.91 C1074.09,777.51 1088.94,783.20 1096.20,786.29 C1103.37,789.48 1117.27,796.85 1124.16,800.79 C1130.99,804.91 1144.34,813.63 1150.80,818.19 C1159.69,824.78 1169.23,832.88 1175.11,838.17 C1180.89,843.63 1192.12,854.99 1197.50,860.82 C1205.18,869.57 1210.28,875.97 1217.10,885.41 C1221.60,891.94 1230.17,905.42 1234.21,912.28 C1238.05,919.19 1243.83,930.29 1248.28,940.42 C1251.28,947.73 1256.81,962.69 1259.31,970.27 C1261.62,977.85 1265.71,993.05 1267.23,1000.75 C1268.62,1008.52 1270.86,1024.26 1271.71,1032.22 C1272.37,1040.14 1273.23,1059.09 1273.12,1063.74 C1272.84,1071.60 1271.71,1087.42 1270.86,1095.37 C1269.83,1103.28 1266.57,1122.58 1265.66,1126.57 C1264.75,1130.56 1259.31,1149.37 1256.81,1156.94 C1254.13,1164.48 1248.28,1179.22 1245.11,1186.42 C1243.20,1190.66 1234.21,1207.36 1230.17,1214.21 C1225.96,1221.01 1217.10,1234.23 1212.48,1240.62 C1207.77,1246.89 1197.50,1258.81 1192.12,1264.65 C1186.58,1270.39 1175.11,1281.47 1169.23,1286.75 C1160.82,1293.95 1150.80,1301.45 1144.34,1306.00 C1137.73,1310.43 1124.16,1318.85 1117.27,1322.79 C1107.03,1328.33 1099.66,1331.88 1088.94,1336.43 C1081.57,1339.36 1066.52,1344.72 1058.94,1347.13 C1051.35,1349.34 1039.24,1352.50 1028.38,1354.58 C1020.58,1355.89 1004.76,1357.95 996.82,1358.70 C988.91,1359.27 973.18,1359.87 965.34,1359.64 C957.46,1359.27 941.61,1357.95 933.66,1357.01 C925.79,1355.89 907.12,1352.50 902.62,1351.36 C895.02,1349.34 879.84,1344.72 872.28,1342.13 C864.79,1339.36 846.71,1331.88 843.02,1330.11 C839.33,1328.33 822.21,1318.85 815.38,1314.72 C808.63,1310.43 795.56,1301.45 789.24,1296.76 C785.54,1293.95 771.26,1281.47 765.47,1276.01 C759.78,1270.39 748.87,1258.81 743.67,1252.89 C738.60,1246.89 729.26,1234.23 724.77,1227.69 C720.41,1221.01 712.16,1207.36 708.31,1200.45 C703.16,1190.66 698.09,1179.22 695.08,1171.90 C692.24,1164.48 687.05,1149.37 684.74,1141.78 C681.62,1130.56 679.80,1122.58 677.74,1111.12 C676.53,1103.28 674.65,1087.42 673.99,1079.49 C673.52,1071.60 673.14,1059.09 673.52,1048.04 C673.99,1040.14 675.50,1024.26 676.53,1016.35 C677.74,1008.52 680.66,993.05 682.63,985.45 C684.74,977.85 689.55,962.69 692.24,955.16 C695.08,947.73 702.54,930.29 704.65,926.15 C708.31,919.19 716.19,905.42 720.41,898.62 C724.77,891.94 736.08,875.97 738.63,872.77 C741.19,869.57 754.24,854.99 759.78,849.25 C765.47,843.63 777.14,832.88 783.11,827.76 C786.67,824.78 802.02,813.63 808.63,809.21 C815.38,804.91 829.09,796.85 836.03,793.09 C843.00,789.48 857.42,783.20 864.79,780.28 C872.28,777.51 887.42,772.51 895.02,770.30 C905.71,767.46 917.99,765.05 925.79,763.75 C941.59,761.50 969.09,759.82 973.18,759.82 Z" fill="none" stroke="rgb(0, 0, 0)" stroke-width="5.00" stroke-opacity="1.00" stroke-linejoin="round"/>
<path d="M978.41,921.28 L977.46,922.48" fill="none" stroke="rgb(0, 0, 0)" stroke-width="5.00" stroke-opacity="1.00" stroke-linejoin="round"/>
<path d="M978.78,1206.18 L980.88,1205.83" fill="none" stroke="rgb(0, 0, 0)" stroke-width="5.00" stroke-opacity="1.00" stroke-linejoin="round"/>
<path d="M953.00,918.00 C959.85,918.01 976.58,920.12 984.30,921.94 C992.93,923.99 1006.85,929.48 1013.79,933.08 C1020.96,936.83 1034.01,945.48 1039.74,950.46 C1045.27,955.29 1055.63,966.22 1060.22,972.05 C1064.78,977.88 1072.47,990.65 1075.80,997.53 C1079.12,1004.42 1084.40,1018.49 1086.20,1025.80 C1087.97,1033.14 1090.27,1048.40 1090.73,1055.96 C1091.16,1063.50 1090.27,1078.60 1089.13,1086.23 C1087.97,1093.86 1084.40,1108.52 1081.77,1115.55 C1079.12,1122.59 1072.47,1136.35 1068.63,1142.75 C1064.78,1149.12 1055.63,1160.78 1050.46,1166.25 C1045.27,1171.71 1034.01,1181.53 1027.62,1185.78 C1020.96,1190.17 1006.85,1197.52 999.32,1200.50 C992.93,1203.01 976.58,1206.88 968.65,1207.89 C959.85,1208.99 946.16,1208.99 937.35,1207.89 C929.43,1206.88 913.07,1203.01 906.68,1200.50 C899.15,1197.52 885.04,1190.17 878.39,1185.78 C872.00,1181.53 860.73,1171.71 855.55,1166.25 C850.37,1160.78 841.23,1149.12 837.38,1142.75 C833.53,1136.35 826.88,1122.59 824.23,1115.55 C821.60,1108.52 818.03,1093.86 816.88,1086.23 C815.74,1078.60 814.84,1063.50 815.28,1055.96 C815.74,1048.40 818.03,1033.14 819.81,1025.80 C821.60,1018.49 826.88,1004.42 830.20,997.53 C833.53,990.65 841.23,977.88 845.79,972.05 C850.37,966.22 860.73,955.29 866.26,950.46 C872.00,945.48 885.04,936.83 892.22,933.08 C899.15,929.48 913.07,923.99 921.70,921.94 C929.43,920.12 946.16,918.01 953.00,918.00 Z" fill="none" stroke="rgb(0, 0, 0)" stroke-width="5.00" stroke-opacity="1.00" stroke-linejoin="round"/>
<path d="M973.98,918.65 L973.98,760.19" fill="none" stroke="rgb(0, 0, 0)" stroke-width="5.00" stroke-opacity="1.00" stroke-linejoin="round"/>
<path d="M986.02,918.65 L986.02,760.19" fill="none" stroke="rgb(0, 0, 0)" stroke-width="5.00" stroke-opacity="1.00" stroke-linejoin="round"/>
<path d="M973.98,1206.20 L973.98,1356.46" fill="none" stroke="rgb(0, 0, 0)" stroke-width="5.00" stroke-opacity="1.00" stroke-linejoin="round"/>
<path d="M986.02,1206.20 L986.02,1356.46" fill="none" stroke="rgb(0, 0, 0)" stroke-width="5.00" stroke-opacity="1.00" stroke-linejoin="round"/>
<path d="M973.19,752.42 C977.10,752.42 996.06,753.45 1003.74,754.15 C1011.44,755.01 1026.66,757.24 1034.17,758.60 C1041.62,760.09 1056.33,764.02 1063.68,766.23 C1071.02,768.61 1085.55,773.88 1092.67,776.73 C1103.08,781.18 1110.13,784.57 1120.09,789.94 C1126.76,793.73 1139.94,801.81 1146.38,806.05 C1152.69,810.42 1164.94,819.47 1170.74,824.37 C1176.49,829.40 1187.72,839.91 1193.20,845.38 C1198.53,850.96 1211.16,865.14 1213.60,868.20 C1216.04,871.25 1227.05,886.72 1231.30,893.16 C1235.42,899.72 1243.17,913.01 1246.79,919.73 C1250.27,926.48 1256.37,940.43 1259.23,947.55 C1261.94,954.78 1266.88,969.43 1269.09,976.77 C1272.10,987.68 1273.84,995.31 1275.86,1006.45 C1277.06,1014.02 1278.96,1029.37 1279.65,1037.05 C1280.17,1044.70 1280.73,1059.92 1280.52,1067.51 C1280.17,1075.14 1278.96,1090.47 1278.09,1098.17 C1277.06,1105.82 1273.84,1124.53 1272.98,1128.34 C1272.10,1132.16 1266.88,1150.41 1264.49,1157.75 C1261.94,1165.06 1256.37,1179.40 1253.38,1186.42 C1250.27,1193.36 1243.17,1206.83 1239.38,1213.50 C1235.42,1220.12 1227.05,1233.12 1222.69,1239.42 C1216.04,1248.58 1211.16,1254.70 1203.71,1263.22 C1198.53,1268.88 1187.72,1279.93 1182.15,1285.26 C1176.49,1290.44 1164.94,1300.37 1158.87,1304.94 C1152.69,1309.42 1139.94,1318.03 1133.38,1322.15 C1126.76,1326.11 1110.13,1335.27 1106.61,1336.97 C1103.08,1338.66 1085.55,1345.96 1078.33,1348.67 C1071.02,1351.23 1056.33,1355.82 1048.98,1357.85 C1041.62,1359.75 1026.66,1362.59 1019.08,1363.79 C1011.44,1364.82 996.06,1366.39 988.41,1366.91 C977.10,1367.42 969.28,1367.42 957.97,1366.91 C950.31,1366.39 934.93,1364.82 927.29,1363.79 C919.71,1362.59 904.75,1359.75 897.39,1357.85 C890.04,1355.82 875.36,1351.23 868.04,1348.67 C860.82,1345.96 843.29,1338.66 839.77,1336.97 C836.25,1335.27 819.61,1326.11 812.99,1322.15 C806.43,1318.03 793.68,1309.42 787.51,1304.94 C781.44,1300.37 769.88,1290.44 764.23,1285.26 C758.65,1279.93 747.84,1268.88 742.66,1263.22 C735.21,1254.70 730.34,1248.58 723.69,1239.42 C719.32,1233.12 710.95,1220.12 706.99,1213.50 C703.20,1206.83 696.10,1193.36 693.00,1186.42 C690.00,1179.40 684.44,1165.06 681.88,1157.75 C679.49,1150.41 674.27,1132.16 673.40,1128.34 C672.53,1124.53 669.31,1105.82 668.28,1098.17 C667.41,1090.47 666.20,1075.14 665.86,1067.51 C665.64,1059.92 666.20,1044.70 666.72,1037.05 C667.41,1029.37 669.31,1014.02 670.51,1006.45 C672.53,995.31 674.27,987.68 677.28,976.77 C679.49,969.43 684.44,954.78 687.15,947.55 C690.00,940.43 696.10,926.48 699.59,919.73 C703.20,913.01 710.95,899.72 715.07,893.16 C719.32,886.72 730.34,871.25 732.77,868.20 C735.21,865.14 747.84,850.96 753.17,845.38 C758.65,839.91 769.88,829.40 775.63,824.37 C781.44,819.47 793.68,810.42 799.99,806.05 C806.43,801.81 819.61,793.73 826.28,789.94 C836.25,784.57 843.29,781.18 853.70,776.73 C860.82,773.88 875.36,768.61 882.69,766.23 C890.04,764.02 904.75,760.09 912.20,758.60 C919.71,757.24 934.93,755.01 942.63,754.15 C950.31,753.45 969.28,752.42 973.19,752.42 Z" fill="none" stroke="rgb(0, 0, 0)" stroke-width="5.00" stroke-opacity="1.00" stroke-linejoin="round"/>
<path d="M982.86,1017.09 C986.20,1017.11 994.22,1018.59 997.88,1019.87 C1001.90,1021.31 1007.68,1024.65 1010.94,1027.41 C1013.88,1029.94 1019.17,1036.14 1020.85,1039.02 C1022.51,1041.92 1025.23,1049.60 1025.95,1053.42 C1026.71,1057.62 1026.71,1064.29 1025.95,1068.49 C1025.23,1072.31 1022.51,1079.99 1020.85,1082.89 C1019.17,1085.77 1013.88,1091.97 1010.94,1094.50 C1007.68,1097.26 1001.90,1100.60 997.88,1102.04 C994.22,1103.32 986.20,1104.80 982.86,1104.82 C979.53,1104.80 971.51,1103.32 967.85,1102.04 C963.83,1100.60 958.05,1097.26 954.79,1094.50 C951.85,1091.97 946.56,1085.77 944.88,1082.89 C943.22,1079.99 940.50,1072.31 939.77,1068.49 C939.02,1064.29 939.02,1057.62 939.77,1053.42 C940.50,1049.60 943.22,1041.92 944.88,1039.02 C946.56,1036.14 951.85,1029.94 954.79,1027.41 C958.05,1024.65 963.83,1021.31 967.85,1019.87 C971.51,1018.59 979.53,1017.11 982.86,1017.09 Z" fill="none" stroke="rgb(0, 0, 0)" stroke-width="5.00" stroke-opacity="1.00" stroke-linejoin="round"/>
</g>
</svg>
